<svg version="1.0" xmlns="http://www.w3.org/2000/svg" width="400" height="400" viewBox="0 0 300 300"><path d="M137 21.4c0 .2 1.1.6 2.5.8 1.4.3 2.5.1 2.5-.3 0-.5-1.1-.9-2.5-.9s-2.5.2-2.5.4zM130 24.2c0 1.5 1.8 1.7 3 .3.9-1.1.8-1.4-.9-1.2-1.2.1-2.1.5-2.1.9zM119.1 25.3c-1.1 1.4-.5 2.7 1.1 2.7.5 0 .6-.5.2-1.1-.3-.6 0-1.5.7-2 .8-.5.9-.9.3-.9-.6 0-1.7.6-2.3 1.3zM139.3 26.3c1.9 1.6 2.4 4.2.5 3.1-.7-.4-1-.3-.5.1.4.5-.5 1.5-2 2.2l-2.8 1.2 3.4-.2c2.9-.2 3.5-.6 3.8-2.9.3-2-.2-3-1.9-3.8-2.1-1-2.1-1-.5.3zM149.3 27.3c2.7 2.2 2 2.7-1.7 1.2-3-1.3-3.5-1.3-4 .1-.9 2.4-.8 2.6 1.3 1.9 2.4-.7 5.1.4 5.1 2.1 0 1.6 1.6 1.9 2.5.4.3-.6.1-1-.4-1-1.8 0-1.2-1.8.7-2.2 1.2-.3.8-.9-1.8-2.1-2.1-1.1-2.8-1.2-1.7-.4zM160.1 28.1l2.4 1.9-2.5.1c-1.4.1-3.1.2-3.8.2-.8-.1-1 .6-.6 1.9.4 1.3.2 1.8-.4 1.4-.6-.4-1 .2-.9 1.2 0 1 .6 1.9 1.3 1.9.6 0 1.1-.7 1-1.6-.1-1.1.7-1.6 2.5-1.6 1.4 0 3.3-.6 4.2-1.3 1.3-1.1 1.6-1 2 .5.4 1.7.5 1.7.6 0 0-1-.6-2-1.4-2.3-.8-.4-1.5-1.2-1.5-1.9s-1.2-1.5-2.7-1.8l-2.7-.5 2.5 1.9zM188.4 27.2c-.3.5-.3 1.2 0 1.5.3.4.6.2.6-.4 0-.6 1.1-.8 2.5-.5 1.4.2 2.3.8 2 1.2-.3.4.6 1 2 1.2 2.6.5 3.4-.5 1.4-1.8-2.2-1.3-7.9-2.2-8.5-1.2zM110.6 29.1c-1.2 1.1-1.5 1.9-.7 1.9.7 0 .9.4.6 1-.9 1.5.2 1.2 1.9-.6 1.6-1.6 2.2-4.4.9-4.3-.5 0-1.7.9-2.7 2zM125 28.4c0 .6 6.1 3.6 7.3 3.6.6 0 .1-.9-1.1-2-1.8-1.7-6.2-2.8-6.2-1.6z"/><path d="M133.5 28.9c-1 1.7.9 2 3 .5 1.8-1.4 1.8-1.4-.2-1.4-1.2 0-2.4.4-2.8.9zM167 29.2c0 2.4 1.1 4.8 2.1 4.8 1.3 0 1-2.3-.6-4.4-1.2-1.6-1.5-1.7-1.5-.4zM120 31.1c0 .6-.4.7-1 .4-.5-.3-2.2.5-3.7 1.9-1.7 1.6-3 2.1-3.4 1.5-.4-.7-1.2-.5-2.2.5-1.4 1.5-1.7 1.5-2.6-.1-.5-1-1.3-1.5-1.7-1.1-.4.4.1 1.9 1 3.3 2.3 3.5-.1 3.3-3.1-.3l-2.3-2.7 1 2.9c1.2 3.2.4 4.8-1.1 2.6-.8-1.2-1-1-.6.8.4 1.6-.1 2.9-1.4 4-1 .9-1.9 2-1.9 2.4 0 1.5-3.4 4.7-4.3 4.1-.6-.3-.7-.1-.3.6.4.7-.2 2-1.6 3.1-1.3 1.1-1.9 1.9-1.5 2 1 0-2.5 6-3.5 6-.4 0-.8.8-.8 1.8s-.5 2.3-1.2 3c-.7.7-.8 1.2-.2 1.2.5 0 .3.4-.3.8-.7.4-1.4 2.2-1.6 4-.5 4.1-1.7 5.4-1.7 1.8 0-1.6-.4-2.5-1-2.1-1.4.9-1.2 3.4.4 5.1 1 .9 1.7 1 2.1.4.4-.6 1.1-.8 1.6-.5 1 .7 1 .5 1.3-4 0-1.7 1-3.8 2.1-4.7 1.7-1.5 1.8-1.9.5-2.8-1.3-.8-1.2-1 .3-1 1 0 1.6-.4 1.3-.9-.3-.5.1-1.2 1-1.5.8-.3 1.3-.9 1-1.4-.2-.4 1.6-3.5 4-6.8 2.5-3.2 5.7-7.6 7-9.7 1.3-2 3-3.7 3.8-3.7 2.1 0 11.5-6.3 11.5-7.8.1-1.6 1.1-1.5 3.5.5 1.2 1 1.5 1.1.9.3-2-2.2-1.5-3 1.7-3 1.7 0 3-.4 3-.8 0-.5-1.3-.9-3-1-1.6 0-3 .4-3 .9zM127 31.8c0 .5.7 1.3 1.6 1.6 1 .4 1.4.1 1.2-.6-.5-1.5-2.8-2.3-2.8-1zM172.4 31.8c-.6.4-.8 1.7-.5 3 .6 2.1.7 2.1 1.8.4 1.2-2.1.3-4.5-1.3-3.4z"/><path d="M93 34.7c0 .5 1.2 2.1 2.6 3.8 2.8 3.1 2.8 2.9.5-1.8-1.3-2.5-3.1-3.7-3.1-2zM176.2 36.6c-.1 1.4.2 2.3.7 1.9.5-.3 1.2.1 1.4.7.4 1 .6 1 .6 0 .1-.6.8-1.2 1.6-1.2 1.8 0 1.9 1.2.3 2.8-.9.9-.9 1.2 0 1.2.7 0 1.2-.5 1.2-1 0-3.4 10 4.1 14 10.5 1.2 1.9 2.7 3.2 3.2 2.9.7-.4.8-.2.4.5-.4.6.4 2.5 1.8 4.2 1.4 1.7 2.6 3.8 2.6 4.8 0 .9 1.5 3.1 3.3 4.8 2.8 2.7 3.9 3 9.2 3.1 5.3.1 5.6 0 2.5-.8-1.9-.5-3.8-.6-4.2-.4-.4.3-2.3-.9-4-2.5-1.8-1.7-3.6-3.1-4-3.1-.5 0-.8-.4-.8-1 0-.5.8-.7 1.8-.4 1 .3.9 0-.5-.8-1.2-.7-2.2-1.6-2.2-2.1 0-.4-.7-2-1.5-3.6-.9-1.6-1.4-3-1.2-3.2.2-.2-.2-1-1-1.7s-1.4-1-1.4-.6c0 1-3.6-3.8-4.3-5.9-.3-.9-1.3-1.7-2.2-1.7-.8 0-1.5-.5-1.5-1 0-.6-.7-1-1.5-1s-1.5-.7-1.5-1.5c0-.9-.6-1.2-1.7-.8-1.1.4-1.4.3-.9-.5.5-.8 0-1.2-1.2-1.2-1.1 0-2.3-.7-2.6-1.5-.4-1.3-1-1.4-2.6-.5-1.6.9-2 .8-2-.5 0-2.6-1.6-1.7-1.8 1.1zM203 35.6c0 .2.8 1.2 1.8 2.1 1.9 1.9 6.5 2.6 5.9 1-.3-1-7.7-4-7.7-3.1zM196.2 36.7c-1.2.2-2 .9-1.6 1.4.3.5 1 .7 1.5.4.5-.4 1.9-.8 3-1 1.2-.3 2.4-.7 2.7-1 .6-.6-2-.5-5.6.2zM201.4 44.2c.3 1.3.6 2.7.6 3.1 0 .5.5.5 1 .2.6-.3 1 .3 1 1.4 0 1.2.4 2.1.9 2.1 1.2 0-.6-5.7-2-6.6-.5-.3-.7-1-.4-1.5.4-.5.1-.9-.6-.9s-.9.9-.5 2.2zM93.5 44.1c-1.2 1.9.5 2.3 2.2.6 1.6-1.6 1.6-1.7.1-1.7-.9 0-2 .5-2.3 1.1zM205 43.7c.5.2.8.8.6 1.2-.3.4.5 1.3 1.7 2 2.1 1.4 2.1 1.3.6-1-.9-1.2-2.1-2.4-2.8-2.5-.6-.1-.7 0-.1.3zM83.5 51c-.8 1.3 1.5 1.3 3.5 0 1.2-.8 1.1-1-.7-1-1.2 0-2.5.4-2.8 1zM75.5 53c-.3.5-.1 1 .6 1s.2.8-.9 1.9c-2.3 1.9-3 3.7-1.1 2.5.6-.3 1.6 0 2.1.7.7 1 .8.8.3-.8-.3-1.2-.1-2.4.5-2.8 1.3-.8 1.3-3.5.1-3.5-.6 0-1.3.4-1.6 1zM70.2 61.7c-.9 1.6-.9 2.4 0 2.9.6.4.8.3.4-.4-.3-.5-.1-1.2.5-1.4.7-.2 1-1.1.7-1.8-.3-1.1-.8-1-1.6.7zM227.6 66.3c.3.9 1 1.7 1.5 1.7.4 0 .6.7.3 1.5-.4.9 0 1.5 1 1.5 2.3 0 2-1.3-1-4.1-1.8-1.7-2.3-1.9-1.8-.6zM222 68.4c0 .3 1.4 1.2 3 2.1 1.7.9 3 1.3 3 1.1 0-.3-1.3-1.2-3-2.1-1.6-.9-3-1.3-3-1.1zM67.8 74.2c0 .7-.2 2.4-.3 3.8-.2 1.4-.6 3.4-1 4.5-.6 1.6-.5 1.8.5.8 1.2-1.1 2.6-10.3 1.5-10.3-.3 0-.6.6-.7 1.2zM210.6 74.5c-.6 1.7 1.1 2.2 5.4 1.5l3.5-.5-4.2-1.2c-3.3-.8-4.3-.8-4.7.2zM233 75.2c0 .4.5.8 1.2.8.6 0 2 .7 3 1.7 1.6 1.4 1.8 1.4 1.8.1 0-.9-.6-2-1.2-2.5-1.6-1.2-4.8-1.3-4.8-.1zM61.1 77.6c-1.9 2.5-2 5.1-.1 3.9.8-.5 3.2-6.5 2.5-6.5-.2 0-1.3 1.2-2.4 2.6zM226.5 78.4c1.7 1.4 3.3 2.5 3.7 2.6 1.4 0-.3-2.8-2-3.4-.9-.3-2.4-.9-3.2-1.2-.8-.3-.1.6 1.5 2zM212.5 78c-.7 1.1.5 1.8 4.6 2.5 3.8.7 3.7.4-.8-1.8-1.8-.8-3.5-1.2-3.8-.7zM239.7 80c-.6 2.5.7 3.5 2.2 1.6.8-1 .8-1.6-.3-2.5-1.1-.9-1.5-.7-1.9.9zM80.3 81c-1.3.5-2.3 1.3-2.3 1.8s-1.1 1.5-2.5 2.2c-1.7.9-2.5 2.1-2.3 3.4.4 2.6 2.2 2.4 2.6-.4.2-1.1 1-2 1.7-2 2.6 0 2.6 1.9 0 4.4-3 3-3.4 5.7-.4 3 3.1-2.8 4.3-5.4 3-6.7-.7-.7-.4-1.9 1-3.9 1.1-1.5 1.9-2.8 1.7-2.7-.2 0-1.3.4-2.5.9zM62.2 83c-.7 1.2-1.7 1.8-2.1 1.5-.9-.5-2.5 2.5-1.7 3.2.5.5 6.6-5.1 6.6-6.1 0-1.3-1.6-.5-2.8 1.4zM219.1 83.5c.9.9 2.8 1.8 4.3 1.9 3.4.4 2.2-.8-2.4-2.3-3.2-1.1-3.4-1-1.9.4zM217.9 85.2c2.6 3 2.3 3.4-1.2 1.7-1.6-.7-1.3-.3.8 1.6 6.4 5.6 8.5 7.3 8.5 6.7 0-.4.9.4 2 1.8s2 2 2 1.3c0-.6-2.2-3.1-5-5.4-2.7-2.3-4.8-4.5-4.5-4.9.2-.4-.8-1.8-2.3-3.1l-2.7-2.4 2.4 2.7zM62.4 87.4c-2.6 2.8-4.6 6.6-3.3 6.1.8-.3 2.2-1.9 3.2-3.7 1.9-3.2 1.9-4.4.1-2.4zM222.6 87.9c-.4.5.4 1.5 1.6 2.2 2.2 1.2 2.2 1.1.8-.7-.8-1-1.5-2-1.6-2.2-.1-.2-.5.1-.8.7zM215.2 92c.7 1.1 1.6 2 2 2 1.5 0 .8-1.5-1.2-2.8-1.9-1.2-2-1.1-.8.8zM63.1 93.7c0 1.2.4 2.5 1 2.8 1.3.9 1.5.6 2.3-2.5l.7-2.5-1.5 2.5-1.4 2.4-.5-2.4c-.4-2.3-.4-2.3-.6-.3zM241.5 98.8c0 5.1-3.6 12.5-4.3 8.9-.2-.9-.8-1.7-1.3-1.7-.6 0-.7-.5-.3-1.2.4-.6.3-.8-.4-.5-.7.5-.7 1.6.1 3.6 1.2 3.2 2.8 2.8 5.9-1.3 1.7-2.4 2.1-4.2 1.9-9.4-.2-5.1-1.6-3.7-1.6 1.6zM67 97.6c-.8 1.3-2 2.2-2.7 2-1.7-.7-1.7 1.1 0 1.7.8.4.9.8.2 1.4-.6.4-1.6 2.1-2.3 3.8l-1.3 3 3.4-3.5c1.9-1.9 3.1-3.6 2.6-3.8-.4-.2-.5-1-.2-1.8.5-1.3.8-1.3 1.5-.2.8 1 .9.9.5-.3-.3-.9-.1-2.1.5-2.7.6-.6.6-1.2 0-1.6-.5-.3-1.5.6-2.2 2zM221.9 98c1.3 1.1 3.1 2 4 2.1 1.2 0 1.2.2-.3.8-1.9.7-1.9.8 0 1.3 3.8 1 2.2-2.2-2-4.3l-4.1-2 2.4 2.1zM60 98.5c0 1.3-.4 1.4-2 .5-1.4-.7-2-.7-2 0 0 .5.7 1 1.5 1s1.5.4 1.5 1c0 2.1 1.8.9 2.2-1.5.3-1.4.1-2.5-.3-2.5-.5 0-.9.7-.9 1.5zM75.2 99.8c-1.9 2.9-1.1 3.7 1.6 1.5 1.1-1 2.9-2.3 3.9-3 1.6-1.1 1.5-1.2-1.1-1-1.7.1-3.4 1-4.4 2.5zM70.7 101.4c-.9.7-1.7 1.8-1.7 2.5 0 .6-.6 1.1-1.2 1.1-.7 0-1.8 1.1-2.4 2.5-.9 1.8-.9 2.4 0 2.2.6-.1 1.4-.9 1.8-1.7.5-1.1.7-.9.7.7.1 1.2.5 2.4 1 2.7.4.3.7-.5.6-1.7-.1-1.2.7-3.7 1.8-5.5 2.2-3.7 2-4.6-.6-2.8zM80 104.5c-.1.5-.2 1.4-.1 1.9s-.5.3-1.4-.4c-1.3-1.1-1.5-1-.9.4.3.9.1 1.6-.4 1.6-.9 0-.9 3.8-.2 6 .1.3.2 1.4.1 2.5-.1 2-.1 2 .8 0 .5-1.1.7-2.3.4-2.8-.2-.4.4-.7 1.4-.8 1.6 0 1.6-.1-.2-.8-1.8-.7-1.8-.8-.1-1.8 1.2-.7 1.6-1.8 1.3-3.9-.2-1.6-.5-2.5-.7-1.9zM212 105.9c0 1 3 2.4 3.7 1.7.3-.2-.5-.9-1.6-1.6-1.2-.6-2.1-.7-2.1-.1zM227 105.8c0 .5.7 1.3 1.6 1.6 1 .4 1.4.1 1.2-.6-.5-1.5-2.8-2.3-2.8-1zM60.1 112.2c0 1.3.3 1.7.6 1 .4-1 .8-1 1.9-.1 1.7 1.4 1.9-.2.2-1.9-1.8-1.8-2.8-1.4-2.7 1zM217.4 113c.3 1.7 2.1 4.4 4.1 6.2 2.4 2.1 3.5 3.7 3.2 5-.3 1.1 0 1.8 1 1.8.9 0 1.2-.6.9-1.8-.3-.9-.8-2.9-1.2-4.4-.3-1.6-.9-2.6-1.3-2.4-.3.2-1.7-1-3.1-2.7-2.2-2.8-2.3-3-.5-2.4 2 .7 2 .7.1-.8-3-2.3-3.9-1.8-3.2 1.5zM103 111.9c0 .8-.8 1.1-2 .8-1.1-.3-1.8-.1-1.4.4.3.5 1.1.9 1.9.9 1.6 0 3-1.8 2.1-2.7-.3-.4-.6-.1-.6.6zM149.7 112.7c-1.2 1.9.9 5.7 4.4 7.7l3.4 1.9-3.2-2.9c-1.8-1.6-3.3-4-3.5-5.4-.2-1.6-.6-2.1-1.1-1.3zM196 112.9l-2.5.7 2.2 1.2c2.7 1.5 5.6 1.7 3.3.2-2.2-1.4-.3-2.5 2.2-1.2 1.3.6 1.7 1.1 1 1.1-1.9.1-.4 2.1 1.6 2.1 1.5 0 1.5-.2.2-1-.8-.5-1-1-.5-1 .6 0 .1-.7-.9-1.5-2.1-1.6-2.8-1.7-6.6-.6zM106.8 113.6c.6.3 1.2 1.5 1.2 2.5 0 1.2-.4 1.7-1.1 1.4-1.3-.9-14.7-1.4-17.6-.8-1.3.3-2.3.8-2.3 1.2 0 .8 12.9.5 13.8-.3.3-.3 1.1-.1 1.8.5.7.5 4.5 1.2 8.6 1.5 4 .3 8.4.8 9.8 1.1 2.3.5 2.4.6.5 1.3-2 .8-2 .9.1.9 3.1.1 3.6-1 1.7-3.2-1.7-1.9-1.7-1.9.4-1.3 1.6.5 2.1.3 1.9-1-.3-1.7-3.2-4.4-4.9-4.4-.5 0-.4.7.3 1.5.7.9 1 1.8.8 2.1-.8.8-5.8-.7-5.8-1.7 0-.5-1-.9-2.2-.9-2.1 0-2 .2 1 2.1 4 2.6 4.2 3.5.2 1.4-1.6-.8-3.6-1.5-4.5-1.5-.8 0-1.4-.5-1.2-1.2.1-.6-.7-1.3-1.8-1.5-1.1-.1-1.4 0-.7.3zM58.1 117.7c.5 2.1.9 5.7.9 8s.4 4.4.9 4.8c2.1 1.2 4 13.9 4.1 27 0 4.9.6 11.9 1.2 15.5.6 3.6 1 8 .9 9.9 0 1.9.2 3.1.6 2.7 1.1-1.1.4-41.7-.8-45.3-.6-1.8-.8-3.7-.5-4.2.4-.5 0-1.5-.7-2.3-2.3-2.2-3.9-5.9-3.3-7.3.3-.8.2-1.6-.3-1.9-.4-.3-.6-1.9-.5-3.7.2-3-1.3-6.9-2.7-6.9-.4 0-.3 1.7.2 3.7zM181 115.1c0 1.4-1.4 1.8-7.4 2.1-7.9.4-11.5 2-9.5 4.4.9 1.1.2 2.2-3 5-2.3 2.1-4.1 4.2-4.1 4.8 0 .6.6.4 1.3-.5.7-.9 2.2-1.9 3.5-2.3 1.2-.4 2-1.1 1.7-1.6-.3-.5.4-1.1 1.5-1.5 1.1-.4 1.8-1.1 1.5-1.6-.4-.5.7-.9 2.4-.9 1.6 0 3.2-.4 3.5-.9.6-1 7.6-2 7.6-1.1 0 .3 2.7.5 6 .5s6-.3 6-.8V119c0-1.7-5.1-2.4-6.2-.9-.8 1.1-.9 1-.4-.4.5-1.5 0-1.9-2-1.6-.4 0-1.1-.5-1.5-1.3-.7-1-.9-.9-.9.3zM69 117c-.6 1.2-.9 2.4-.7 2.7.3.2 1.1-.5 1.7-1.7.6-1.2.9-2.4.7-2.7-.3-.2-1.1.5-1.7 1.7zM234.5 116.9c-1 1.8.6 3.6 1.7 2 .8-1.1.9-1 .4.3-.3 1 0 2 .5 2.4.7.4.9-.4.7-2.2-.3-2.9-2.2-4.3-3.3-2.5zM201 118.8c-3.5.5-5 2.2-1.9 2.2 2.4 0 5.8-1.6 4.9-2.2-.3-.2-1.6-.2-3 0zM205.5 119c-.6 1 4.8 2 5.5 1.1.3-.5 1.2-1 2-1.3.8-.3-.4-.5-2.8-.5-2.3 0-4.5.3-4.7.7zM77 119.7c0 .7-1.2 1.2-2.7 1.2-5.2-.2-6.7.7-7.4 4-.6 2.8-.3 3.4 1.8 4.4 2.1.9 2.4 1.6 2 4.4-.3 1.8-.1 3.5.4 3.8.5.4.9-1.9.9-5.3 0-8.6 1.4-9.6 14.9-10.2 5.8-.3 10.1-.8 9.4-1.3-1.5-.9-14.8-1.1-16.3-.2-.7.4-1.6.1-2.1-.6-.6-1-.9-1-.9-.2zM231.4 121.1c-.3.6-.1 1.6.5 2.2.9.9 1.1.8.6-.6-.4-.9-.3-1.7.3-1.7.5 0 1.3 1.7 1.8 3.7.4 2.1.9 3.1 1.1 2.2.5-2-1.4-6.9-2.6-6.9-.5 0-1.3.5-1.7 1.1z"/><path d="M103.5 122.1c5.8 1.2 10.4 1.1 8.5-.1-.8-.5-4-.9-7-.9l-5.5.1 4 .9zM127 122c1.2.8 1.2 1-.5 1.1-1.1.1.7.7 4 1.5 7.6 1.7 8.6 1.7 5.5 0-1.4-.8-2.8-1.2-3.2-1-.5.3-1.8-.2-3-1-1.2-.9-2.7-1.6-3.3-1.6-.5 0-.3.5.5 1zM161 122.9c0 .8-.7 1-1.9.6-1.4-.4-2.3.1-3.2 1.6-1 1.9-.9 2.1.6 1.6.9-.4 2.3-.7 3-.7 1.4 0 2.9-2.9 2-3.8-.3-.3-.5 0-.5.7zM87.5 124c.4.6 0 1-.7 1-1.1 0-1 .2 0 .9 2.7 1.7-1.6 2.1-6.5.6-5.9-1.8-6.3-1.8-4-.1 1.9 1.4.7 3.3-1.3 2.1-.5-.3-1 .1-1 1 0 1.4.8 1.6 4 1.3 4.4-.4 4.4-.3 3 5.7-.5 2.2-.5 4.4-.1 4.8.8.8 3.1-7.3 3.1-10.8 0-.8.5-1.5 1.1-1.5 2.1 0 7.6-3.1 7.6-4.3 0-.7-1.3-1.3-2.9-1.4-1.6-.1-2.6.2-2.3.7zM193.1 123.9c-1.2.8 7.9 2.1 14.3 2.1 4.4 0 10.2 1.8 12.1 3.7 1.2 1.1 1.6 3.2 1.5 7.2-.1 3.1-.1 5.8 0 6.1.3 1 1 5.5 1.4 9.8.2 2.4 1.2 5.2 2.2 6.3.9 1 1.5 2.2 1.2 2.5-.9.8-4.8-6.1-4.8-8.5 0-1.1-.5-2.1-1.1-2.1-.7 0-.9 1.1-.4 3.2.3 1.8.9 5.3 1.2 7.8.3 2.5.9 5 1.5 5.7.5.7.5 1.3-.1 1.7-.5.4-1.7-1.5-2.5-4.1l-1.5-4.8.6 5c.3 2.7 1.1 6.3 1.9 7.9 1.7 3.5 1.7 3.9.4 3.1-.5-.3-1-.1-1 .4 0 .6.4 1.1.9 1.1s1.2.7 1.5 1.6c.6 1.5.4 1.5-1 .3-1.6-1.3-1.6-1.2-.5 1 1.2 2.2 1.2 2.4-.8 1.8-3-.7-2.7-.3 2.2 2.8 2.7 1.8 3.7 2.2 2.7 1-1.4-1.7-1.3-1.8 1.2-1.2 2.7.7 2.7.6 2.1-2.5-.8-4.3-2.3-6.4-3.4-4.6-.4.6-.5-.7-.2-3 .4-2.9.2-4.2-.6-4.2-.7 0-1-.4-.6-1 .3-.5 1.2-.7 2.1-.3 1.1.4.8-.7-1-4-3-5.4-3.3-7.1-.7-4 1.6 2 2 2 2.5.7.4-.9.1-2.2-.5-3-.6-.7-1.2-3.9-1.3-7.2-.1-3.2-.6-6.5-1.1-7.2-.5-.8-1-3.3-1.1-5.7-.3-3.9-.1-4.2 2.4-4.5 2.3-.3 2.7-.8 3-4.1.3-3.7.3-3.7-3.5-3.9-7.3-.3-7.9-.4-9-1.1-.7-.4-4.3-1-8-1.3-3.7-.3-8.2-.6-9.9-.9-1.7-.2-3.6 0-4.3.4zM237.2 126.1c-.5 1.9-.6 4.1-.3 4.9.3.8.8-.5 1.2-3 .8-5.5.3-6.4-.9-1.9zM177.8 125.7c1.8.2 4.5.2 6 0s0-.4-3.3-.4-4.5.2-2.7.4zM232.1 127c-.2 2.3-.3 2.4-1.1.5s-.9-1.9-.9.1c-.1 1.2.6 2.4 1.4 2.7 1.2.5 1.2 1.2.3 3.8-.8 2.4-.8 3.3.3 4 1.7 1 1.5 1.2 2.2-3.9.3-2.3.1-4-.3-3.7-.5.3-1.1-.9-1.3-2.7-.3-2.7-.4-2.8-.6-.8zM131.9 127.6c1.9.8 3.6 1.2 3.9.9.5-.5-4.3-2.5-6.1-2.5-.7.1.3.7 2.2 1.6zM137.5 134.3c-1.1 4.5-2.8 9.7-3.7 11.6-2.3 4.4-2.5 7.3-.4 5.1 1.6-1.7 4.2-9.7 5.1-15.8l.7-4.4 4.9.7c3.4.5 4.9.3 4.9-.5 0-.7-.8-.9-1.9-.5-1.2.3-2.3 0-2.8-.8-.4-.8-1.7-1.9-2.8-2.5-1.9-1-2.2-.5-4 7.1zM118.6 128.1c.4.7-1.2 1-4.7.9-3-.1-5.9-.2-6.5-.1-1.7.2-2.6 4.8-1.4 7.1 1.3 2.5 4.2 2.7 3.3.3-.5-1.1-.3-1.4.6-.8 1 .6 1.1.3.1-1.4-.6-1.2-1.6-1.9-2.3-1.5-.8.5-.9.4-.2-.3 1.6-1.7 7.3-2.4 7.9-1 .5.9.7.9 1.2 0 .4-.9 1.5-.8 4.5.7 2.1 1.1 3.9 1.7 3.9 1.3 0-1 2 1.9 2 2.9 0 .5-1.8.8-4.1.8-2.2 0-3.8.4-3.5.9.3.4 1.6.7 2.8.6 1.3-.1 3.1-.3 4.1-.4 4.2-.3.1-8.1-5.3-10-2.2-.7-2.9-.7-2.4 0zm6.4 4.1c0 .5-.9.3-2-.4s-2-1.6-2-2c0-.5.9-.3 2 .4s2 1.6 2 2z"/><path d="M97.3 130c-1.8 1.1-3.3 2.7-3.3 3.6 0 .8-1.3 2.9-2.9 4.5-1.6 1.6-2.4 2.9-1.7 2.9.6 0 1.8-.6 2.5-1.3 1-1 1.1-.9.6.5-.5 1.3-.2 1.5 1.4 1.1 1.2-.3 1.7-1.1 1.4-1.9-.8-2.1 2.3-2.8 4.9-1 1.2.9 3.4 1.6 4.8 1.5 2.1 0 1.9-.3-1.7-1.9-5-2.2-5.3-3.3-1.5-5.7 1.5-.9 2.9-1.9 3.2-2.1.6-.4-2.2-2.2-3.5-2.2-.5 0-2.5.9-4.2 2zm2.7 1c-2.7 2.1-4.5 2.6-3.5.9.6-.9 4.1-2.7 5.5-2.8.3 0-.6.8-2 1.9zM150.7 128.7c-1.2 1.1-.8 2.3.7 2.3 2.2 0 3.5 2.4 4.7 8.6 1.3 6.6 3 11.4 4.1 11.4 1 0 1-.3-.3-3.7-.6-1.5-1.1-4.5-1.1-6.6.1-2.1-.3-3.5-.9-3.2-.5.4-.9.1-.9-.4 0-.6-.8-2.9-1.7-5.1-1.7-3.8-3.1-4.8-4.6-3.3zM206 129c.8.5 1.1 1 .6 1-1.1 0 1.4 3 2.5 3 .5 0 .9-.7.9-1.5s-.5-1.5-1.1-1.5c-.5 0-.7-.5-.4-1 .3-.6-.4-1-1.7-1-1.8 0-2 .2-.8 1zM171.6 129.9c-.4.5 0 1.2.6 1.5.7.3.3.3-.9 0-1.5-.3-2.5.1-3.3 1.6-.9 1.6-.8 2 .5 2 2.2 0 6.6-3 5.9-4.1-.3-.5.2-.6 1-.3 1.1.4 1.3 1.4 1 3.4-.5 2.1-.1 3.1 1.7 4.3 1.2.9 2.7 1.3 3.3.9.6-.3 2-.5 3.2-.4 2.7.4 4.8-2.2 4.2-5.2l-.5-2.4 3.3 2.1c1.8 1.2 3.1 2.4 2.9 2.8-.2.3.5 1.3 1.6 2.2 1.1 1 1.7 2.1 1.5 2.6-.5.8 6.4 2.4 7.2 1.7.2-.2-.9-1-2.5-1.8-1.7-.8-2.9-2.3-3.1-3.7-.2-1.3-1.2-2.6-2.3-2.8-1-.3-1.9-.9-1.9-1.5 0-1.6 4.2 1.3 4.7 3.3.3 1 .9 1.7 1.3 1.4.5-.3 1.1-.1 1.5.5.3.5 1.1 1 1.8 1 .6 0-.8-1.8-3.2-4.1-2.9-2.9-4.8-3.9-6.2-3.6-1.1.3-3.2-.1-4.7-.9-3-1.6-17.7-2-18.6-.5zm13.2 1.7c1.2.4 2.2 1.4 2.2 2.5 0 2.7-2 3.4-2.1.7 0-1.5-.3-1.8-.6-.8-1.8 4.6-6.3 5-6.3.6 0-3.2 2.2-4.2 6.8-3zM217.5 134.3c-.3 1.2-.2 3.4.4 4.7.9 2.2 1 1.8.9-2.3-.1-5.2-.5-5.8-1.3-2.4zM115 134.5c0 .7-.8 1.9-1.7 2.4-1.5.9-1.5 1-.2 1.1.8 0 2-.5 2.7-1.2 1.5-1.5 1.6-3.8.2-3.8-.5 0-1 .7-1 1.5zM75.4 134.7c.4.6.2 1.3-.3 1.5-.4.1-.5 1.1-.2 2.1.6 1.6.9 1.7 1.9.5.9-1.2.8-1.9-.4-3.4-.8-1-1.3-1.4-1-.7zM168.5 139.1c-.9 1.3 4.1 2.2 6.2 1 1.7-1 1.7-1-.2-1.1-1.1-.1-2.8-.3-3.7-.5-1-.2-2 .1-2.3.6zM214.7 139.9c-.3 1.3-1 2-1.6 1.6-2.2-1.3-.9 1.1 1.4 2.8 2.5 1.8 2.5 1.8 2.4-.5 0-1.3-.4-3.2-.8-4.2-.7-1.9-.8-1.9-1.4.3zM70.3 143.3c-.1 2.3-.3 4.9-.5 5.7-.2.8.1 1.7.6 2 .4.3 1-2.3 1.3-5.8.2-3.4 0-6.2-.4-6.2s-.9 1.9-1 4.3zM74.1 142.4c-.9 1.1-.6 1.5 1.4 1.8 1.6.3 2.5.1 2.5-.7 0-1.9-2.7-2.6-3.9-1.1zM123 143c-1.4 1.1-2 2-1.4 2 .7 0 2.2-.9 3.5-2 3.1-2.5 1.2-2.6-2.1 0zM130 141.4c0 .2.7.9 1.5 1.6 1.2 1 1.5 1 1.5-.4 0-.9-.7-1.6-1.5-1.6s-1.5.2-1.5.4zM160.5 142c-.6 1 1.5 5 2.7 5 1.5 0 1.7-1.8.2-2.4-.9-.4-1.4-1.3-1-2.1.6-1.6-.9-2.1-1.9-.5zM79.7 144.4c-.4 1-.5 2.1-.2 2.4.9.9 1.7-.6 1.3-2.5-.3-1.7-.4-1.7-1.1.1zM129.2 144.3c-.9 1.1-1 1.7-.2 2.2 1.5.9 2.3.1 1.8-2.1-.3-1.5-.4-1.6-1.6-.1zM233 143.9c-.8.6-1.8.7-2.2.5-.4-.3-.5.2-.2 1 .9 2.4 4.4 2 4.4-.4 0-2.3 0-2.3-2-1.1zM110.7 146.3c-1.2.5-4.6.6-7.5.4-4.7-.5-5.2-.4-3.5.8 1.5 1 3.5 1.1 8.9.5 3.8-.5 7.5-.9 8.2-1 .6 0 1.2-.4 1.2-.9 0-1.1-4.2-.9-7.3.2zM193.1 147.9c-1 .6-.3.9 2.2.8 2 0 3.4-.5 3.1-.9-.7-1.1-3.5-1-5.3.1zM78.2 148.9c-1 .6-1 1 .2 2 1 .9 1.6.9 2.1.1 1-1.6-.7-3.1-2.3-2.1zM179.4 148.8c.5.8 10.6.5 11.5-.3.2-.3-2.4-.5-5.8-.5s-6 .4-5.7.8zM216.5 149.3c-.4 1-.5 2.1-.1 2.4 1 1 1.8-.4 1.3-2.4-.4-1.7-.4-1.7-1.2 0zM231 151c0 1.7.7 6.5 1.6 10.8.9 4.2 1.4 9 1.1 10.7-.7 4.2-1.5 7.3-2.2 8.5-.3.6-.3 1 0 1 3 0 5-19.4 2.5-24.1-.6-1.1-1-3.7-.8-5.6.2-2.3-.2-3.8-1-4.1-.8-.2-1.2.7-1.2 2.8zM79.1 153.9c0 .8-.7 1.1-1.7.7-1.5-.6-1.5-.4-.3 1 1.6 2 7.1 4.4 9.6 4.3 1 0-.1-.7-2.4-1.5-2.9-1.1-4.3-2.2-4.6-3.7-.2-1.2-.5-1.6-.6-.8zM72.5 155.4c-.5.6-1.1 2.9-1.2 5.1-.1 2.2.1 3.4.4 2.7.2-.6.9-1 1.4-.6.5.3.9-.1 1-.8 0-.7.3-2.5.5-4 .5-3-.6-4.2-2.1-2.4zM127 158.3c-2.2 2.6-2.8 3.6-1.5 3 2.8-1.6 6.8-6 5.8-6.5-.4-.3-2.4 1.3-4.3 3.5zM165.6 161.2c1.2 2.2 2.3 3.3 2.8 2.8.6-.6-.2-2-1.8-3.7l-2.8-2.8 1.8 3.7zM158 159.5c0 1 2.2 4.8 3.6 6.2.9 1 1.3 1 1.7 0 .6-1.6-.3-3.8-1.3-3.2-.4.3-.7-.3-.6-1.2 0-1-.7-1.9-1.6-2.1-1-.2-1.8-.1-1.8.3zM209.1 161.1c-1.3.5-2.2 1.1-2 1.4.8.7 4.9-.7 4.9-1.6 0-.5-.1-.9-.2-.8-.2 0-1.4.5-2.7 1zM201.5 163c-2.8.7-2.8.8-.5.9 1.4 0 3.2-.4 4-.9 1.7-1.1.8-1.1-3.5 0zM71.7 165.4c-1.1 1.2-1.4 2.4-.9 3.9.9 2.6.8 8.9-.2 10.5-.4.7-.2 1.2.5 1.2 1.5 0 .5 5.4-1.7 8.3-1.6 2.2-1.6 2.2-1-.7.6-2.4.5-2.6-.7-1.5-2.1 2.2-1 18 1.4 19.5.5.3.9 1.8.9 3.4 0 2.1.4 2.8 1.4 2.4 1-.4 1.3 0 .9 1.4-.3 1.2.1 2.2 1.1 2.5.9.4 1.6.2 1.6-.2 0-.5-.6-1.1-1.2-1.4-1-.4-1-.7 0-1.8 1.7-1.8 1.5-2.6-.9-3.2-1.8-.5-1.9-.8-.9-2.7 1-1.8.9-2.1-.1-1.5-.9.6-1.1.3-.6-.9.4-1 .3-1.5-.3-1.1-.5.3-1.2-.7-1.6-2.2-.3-1.5-.8-3.6-1-4.5-.3-.9.3-3.4 1.2-5.5 1.4-3.1 1.8-3.4 2.1-1.8.3 1.1.9 2.4 1.3 2.9 1 1 .6-3-.6-5.8-.5-1.4-.4-1.7.4-1.2.7.4 1.2.1 1.3-.6.6-12 .6-17.3 0-19-.7-1.9-.8-1.9-2.4-.4zM121.7 167.8c-2.5 5.1-.2 10.3 5.9 13.2 5 2.3 5.4 2.4 5.4 1.1 0-.5-1.5-1.5-3.4-2.1-1.9-.6-4.1-2.2-5-3.5-2.1-3.2-2.1-8.1 0-9.3 1.5-.8 1.5-1 0-1.5-1.1-.4-2 .2-2.9 2.1zM171.2 171.2c1 3 .9 3.3-2.5 6.1-2.1 1.6-3.7 3.3-3.7 3.8 0 1.6 5.9-2 7.6-4.6 1.8-2.8 1.1-8.5-1.1-8.5-1.1 0-1.2.6-.3 3.2z"/><path d="M129.4 175.5c-1.8 1.4-1.8 1.4.6 1.5 3 0 7 2.6 7 4.4 0 .8 1.7 1.6 4.4 2 5 .8 9.6-.1 9.3-1.7-.3-1.5 9.3-4.9 12.5-4.5 3.9.6 2.4-1-1.8-1.8-3.4-.6-8.5.7-11.4 3.2-.8.6-2.4 1.4-3.5 1.6-1.1.2-1.9 1-1.7 1.7.2.9-.3.9-1.7.2-1-.6-2.1-.7-2.5-.4-.3.3-.6-.1-.6-1s-1.8-2.8-4-4.2c-4.7-3-4.1-2.9-6.6-1z"/><path d="M142 174.9c0 .8 9 .3 9.9-.5.2-.2-1.9-.4-4.7-.4-2.9 0-5.2.4-5.2.9zM79 187.6c0 .9-.5 1.2-1.2.8-.7-.4-.8-.3-.4.5.4.6.2 1.8-.4 2.6-.9 1.1-1 1.5-.1 1.5.7 0 1.8-1.4 2.5-3 .7-1.7 1.5-2.7 1.9-2.3.4.3.7.1.7-.5 0-.7-.7-1.2-1.5-1.2s-1.5.7-1.5 1.6zM220 187.4c0 .8.5 1.8 1.1 2.1.5.4 1.4 1.8 2 3.2.9 2.4 2.9 2.4 2.9 0 0-.7-.4-.6-1 .3-.8 1.2-1 1.1-1-.8 0-1.2-.9-3.1-2-4.2-1.5-1.5-2-1.6-2-.6zM163.2 187.7c-.9.3-.5 1.2 1.3 3 2.8 2.9 3.4 5.2.8 3.2-1-.7-1.5-1-1.1-.5.4.5.2 1.8-.5 3-1.1 2-1.2 1.9-1.7-1.3-.3-1.9-1.1-3.7-1.9-3.9-1.1-.4-1.2 0-.6 1.4.4 1.1 1.4 3.9 2.1 6.4.8 2.8 1.3 3.6 1.3 2.2.1-2.2 2.2-5.2 3.6-5.2.3 0 .4.9 0 1.9-.4 1.4 0 2.1 1.5 2.6 2.4.7 4.1-.2 2.4-1.3-.5-.4-1.1-1.7-1.1-2.9-.1-1.2-1.1-3.1-2.2-4.2s-1.8-2.7-1.5-3.6c.6-1.5-.1-1.8-2.4-.8zM122.3 189.7c-1 1-1.4 1.5-.9 1.1.5-.4 1.4-.1 2 .8.9 1.2 1.1 1 1.1-1.1 0-3 .2-2.9-2.2-.8zM100.3 190.2c.2.7-.9 2.1-2.5 3-1.5 1-2.8 2.2-2.8 2.8 0 1.4.6 1.3 2.4-.6.9-.9 2.3-1.7 3.1-1.8.9-.1 1.5-.5 1.5-.9v-2.2c0-.8-.5-1.5-1.1-1.5-.6 0-.9.6-.6 1.2zM131.1 191.3c-.6 1.6-1.4 2.6-1.8 2.4-.5-.3-.9 1.4-.9 3.6-.1 2.3 0 3.4.3 2.4.2-.9.9-1.7 1.5-1.7.7 0 .6-.5-.1-1.4-.7-.9-.8-1.7-.2-2 .5-.3 1.1-.1 1.3.6.6 1.7 4.8-2.7 4.7-5 0-1.4-.2-1.3-1.1.5-.6 1.2-1.7 2.4-2.6 2.8-1.2.4-1.3.3-.2-.9.6-.9 1-2.1.7-2.8-.3-.8-.9-.1-1.6 1.5zM208 189.1c0 .2.7 2.5 1.4 5.1 1.3 4.2 1.3 4.6-.1 4.1-1.2-.5-1.4-.3-.7.8.4.8.7 2.4.6 3.6-.2 1.1.2 2.4.8 2.8.9.5 1 .1.5-1.4s-.1-2.9 1.1-4.2c1.5-1.6 1.6-2.2.5-2.8-.8-.5-1-1.4-.7-2 .4-.6-.2-2.3-1.3-3.7-1.2-1.5-2.1-2.5-2.1-2.3zM80 192.1c-.7 1.1-1.9 2.9-2.8 3.9-1.9 2.3-2.4 5-1 5 .6 0 .8-.6.5-1.3-.5-1.4 1.8-3.9 2.8-2.9.4.4.6.2.5-.3-.4-2 0-2.5 1.3-1.4 1 1 .8 1.7-1 3.5-2.3 2.3-3 4.4-1.5 4.4.4 0 1.2-1 1.7-2.3.6-1.2 1.6-2.1 2.3-2 1.7.4 1.5-2.3-.3-4.1-1.7-1.6-2.1-4.1-.5-3.1.6.3 1 .1 1-.4 0-1.8-1.9-1.2-3 1zM111.2 192.7c-.6 1.6-1.3 3.7-1.6 4.8-.6 1.9-.5 1.8 1.3-.2 1-1.2 2.2-1.9 2.7-1.5.5.4.3 0-.4-.9s-1-2.4-.6-3.3c.3-.9.4-1.6.1-1.6-.2 0-.9 1.2-1.5 2.7zM144.8 191.7c-2.2.5-2.4 2-.3 2 .8 0 1.6-.6 1.9-1.4.3-.7.4-1.2.3-1.2-.1.1-1 .3-1.9.6zM186.3 191.7c-.7.2-1 1-.7 1.8.3.7 0 1.6-.5 2-.6.3-.8 1.1-.5 1.7.4.6 1.3-.4 2.1-2.2 1.4-3.6 1.4-3.9-.4-3.3zM116.6 193.8c-.4.7-.4 1.7-.1 2.2.8 1.3 3.5-.6 3.5-2.4 0-.6-.4-.5-.9.3-.7 1.1-.9 1.1-1.3 0-.3-1-.6-1-1.2-.1zM121 195.1c0 1.1.5 1.7 1 1.4.6-.3 1-1.3 1-2.1s-.4-1.4-1-1.4c-.5 0-1 .9-1 2.1zM152.1 195.3c-.1 3.3 1.6 7 2.9 6.2.5-.3 1.8-.1 2.8.4 1.7.9 1.8.7 1.4-1.4-.2-1.4-.8-2.5-1.3-2.5s-.6.8-.3 1.7c.5 1.5.3 1.5-1-.1-1.5-1.9-1.6-1.9-1.6-.1 0 2.9-1.2.9-2-3.2-.7-3.2-.8-3.4-.9-1zM180.1 196.1c0 1.9.3 2.7.6 1.9.3-.8 1-1.8 1.5-2.1.5-.3.2-1.2-.7-1.9-1.3-1.1-1.5-.8-1.4 2.1zM221.3 194.4c.4 1 .7 2.2.7 2.7 0 .6.5.7 1 .4.6-.3 1-.1 1 .4 0 .6-.5 1.1-1.1 1.1-.6 0-.8.9-.4 2.1.5 1.3.2 2.5-.6 3.1-1.1.8-1.1.9.1.6.8-.3 1.8-2.1 2.2-4.1.6-3.1.4-4.1-1.4-5.9-1.7-1.7-2-1.8-1.5-.4zM102.9 195.5c-.1.3-.2 1.1-.3 1.7-.1.7-.6 1.2-1.1 1.2-.6-.1-2.1 1.2-3.5 2.9l-2.5 3.2 4-3c5.4-4.1 6.5-5.2 5.8-5.9-.8-.7-2.3-.8-2.4-.1zM141 196.5c0 .9.6 1.2 1.5.9.8-.4 1.2-1 .9-1.5-.8-1.4-2.4-1-2.4.6zM189 195.1c0 1.3 3.9 8.3 4 7.1 0-.7.5-1 1-.7.8.5.8 1.1.1 1.9-.6.7-.8 1.6-.4 1.9.3.4.1.7-.5.7s-.9.7-.6 1.5c.4.8 1.2 1.5 2 1.5.7 0 1.1-.6.8-1.4-.3-.8-.1-1.7.4-2 1.1-.7 2.6 4 1.7 5.4-.3.5-.1 1.1.5 1.5 1.7 1.1 1.1-3.8-.9-7.6-1.8-3.4-8.1-11-8.1-9.8z"/><path d="M217 195.3c0 1.5 2 4.7 3 4.7.6 0 1-1 1-2.3 0-1.6-.3-1.8-.9-.8-.7 1.1-1.1 1-2-.5-.6-1.1-1.1-1.5-1.1-1.1zM139.1 197.7c-.1 1.2-.4 2.8-.7 3.7-.3.9-.2 1.6.4 1.6 1.6 0 2.2-2.8 1.2-5.2l-.9-2.3v2.2zM146.7 197.4c-.4 1-.7 2.5-.6 3.4 0 1.1.4.9 1-.7.5-1.3.8-2.9.6-3.5-.2-.5-.6-.2-1 .8zM175.4 197.5c.1.8.6 1.8 1.1 2.2.4.4.5.2.1-.5-.4-.6-.2-1.2.4-1.2.6 0 .8-.5.5-1-.9-1.5-2.4-1.2-2.1.5zM149.8 199.3c-.4 1.8-.1 2.4.9 2 1.5-.6 1.6-1.3.4-3.1-.6-1-1-.7-1.3 1.1zM120.6 198.9c-.3.5.1 1.1.9 1.5.9.3 1.5 0 1.5-.9 0-1.6-1.6-2-2.4-.6z"/><path d="M132 202c0 2.1-.2 2.2-7 2.1h-4.5l3.5 1c1.9.6 8 1.8 13.5 2.6 8.4 1.4 11.5 1.4 19.5.4 5.2-.6 11.8-1.8 14.5-2.6l5-1.4-5.5.4c-11.6 1-34.1 1.7-36.4 1.1-1.9-.5-2.2-1.1-1.8-3.1.2-1.4.2-2.5-.2-2.5-.3 0-.6.9-.6 2zM90 202.5c0 .8.5 1.5 1 1.5.6 0 1-.7 1-1.5s-.4-1.5-1-1.5c-.5 0-1 .7-1 1.5z"/><path d="M108 201.9c0 .6.6 1.1 1.3 1.1.8 0 2.2.9 3.1 1.9.9 1 5.2 3.5 9.4 5.6 4.2 2 9.5 4.6 11.7 5.7 3.9 2 18.6 4.7 23.5 4.3 4.2-.3 12.1-3.9 21.5-9.8 7.8-5 9.5-7.7 4.6-7.7-2.4 0-3.4.7-4.6 3-.8 1.6-1.9 2.9-2.3 2.9-.4-.1-1.7.2-3 .6-1.7.6-2.2 1.3-1.8 2.7.4 1.6.1 1.9-1.5 1.5-1.2-.3-1.9 0-1.9.9 0 2.4-3.7 1.5-5.8-1.3l-2-2.8-.7 3c-.4 1.7-.8 3.5-1 4.1-.2.7-2.5 1.2-5.4 1.2-4.7 0-5.1-.2-5.1-2.4 0-1.4-.6-2.4-1.4-2.4-1 0-1.2.7-.8 2.2.4 1.8.2 2-1.4 1.4-1-.5-3-.9-4.4-1-1.4 0-2.4-.6-2.3-1.1 0-.6-1-1.8-2.3-2.8-2.1-1.6-2.4-1.6-2.4-.2 0 1.5-.1 1.5-1.6.1-.8-.9-2.6-1.6-4-1.6-1.3 0-2.4-.5-2.4-1.1 0-.5-.4-.8-.9-.5-.5.4-2.1-.9-3.6-2.6-1.5-1.8-3.7-3.7-4.9-4.1-3.6-1.5-7.6-1.9-7.6-.8zm54.5 14.1c0 .7-.6 1.5-1.2 1.7-.8.3-1.3-.4-1.3-1.7 0-1.3.5-2 1.3-1.8.6.3 1.2 1.1 1.2 1.8zM82.4 205.4c-.3 1.3-.4 3.5-.2 4.7l.3 2.4 1.4-2.4c.9-1.7 1-2.1.1-1.6-.9.6-1-.1-.5-2.4.8-3.6-.2-4.3-1.1-.7zM101.9 203.5c-.1.3-.3.9-.4 1.5-.1.5-.4 1.6-.5 2.2-.1.7-.6.2-1-1.2-.8-2.4-.8-1.1 0 6.5.1 1 2.2-2.2 2.7-4 1-4.6 1.1-5.5.2-5.5-.5 0-1 .2-1 .5zM224 205.9c0 .7-.4 1-.8.7-.4-.2-.8 1-.9 2.7-.1 1.9.1 2.4.4 1.2.3-1.1 1-2.6 1.6-3.3.5-.7.7-1.5.3-1.9-.3-.3-.6-.1-.6.6zM206.5 211.7c.2 3.6.1 5-.4 3.8-.5-1.1-.6-2.5-.4-3.1.2-.7-.1-1.5-.8-2-.9-.5-1-.2-.6.9.4 1 .1 1.7-.5 1.7-.9 0-.9.3 0 1.2 1.6 1.6 1.5 2.8-.2 2.8-.8 0-1.7.7-2 1.6-1.1 2.7-.6 5.4.8 5.4.8 0 1.7 1 1.9 2.2.3 1.6.5 1.3.6-1 0-1.8-.3-3.1-.7-2.8-.4.2-.8-.4-.8-1.5 0-1.2.9-2.2 2.2-2.5 1.7-.4 2.4-1.7 3.2-5.7 1.1-5.5.9-6.7-1.2-6.7-1 0-1.3 1.5-1.1 5.7zM86 211.3c-1.7 3.8-1.8 5-.9 7.4.7 1.5 1.1 3.9 1 5.2 0 1.3.7 3.3 1.6 4.4 1.3 1.5 1.5 2.1.6 2.4-.7.3-1.3 1.4-1.3 2.6 0 2-.2 2-2.3-.7-2.4-3-3.4-2.7-4.2 1.4-.5 2.5.3 2.6 2.1.2 1.3-1.6 1.4-1.6 2 .5.8 3 1.7 2.9 3.4-.2.7-1.4 1.9-2.5 2.7-2.5.7 0 1.3-.5 1.3-1.1 0-.5-.4-.8-.9-.4-.5.3-1.2-.4-1.6-1.5-.3-1.1-1.2-2-1.8-2-.7 0-.4-.7.6-1.4 1-.8 1.9-2.5 2-3.8 0-1.2.9-3.8 1.9-5.6 2.3-4.3 2.3-6.5 0-2.9-1 1.5-2.2 2.4-2.7 2-.4-.5-.6-.4-.3.2.3.5.3 2.8-.1 5l-.7 4-1.6-4.7c-1.4-3.9-1.4-4.9-.3-5.8 1.5-1.2 2.9-5.9 2.1-6.8-.3-.3-1.5 1.5-2.6 4.1zM77.1 209c-.7 3.7-.3 8.2.8 9.3 1 .9 1.2.9.9-.3-.2-.8-.7-1.8-1.3-2.2-.6-.5-.3-.8.6-.8.9 0 2-.7 2.3-1.6.5-1.4.4-1.5-.8-.5-1.2 1-1.5.7-1.9-2.1-.2-1.8-.5-2.6-.6-1.8zM217.3 210.9c-.4 1.6-.8 1.9-1.4 1-.6-1-.9-.9-1.4.6-.4 1.1-1.4 3.3-2.2 4.9-.9 1.6-1.1 2.6-.4 2.2.6-.4 1.1-.2 1.1.4 0 .6-.7 1.3-1.5 1.6-2.5 1-1.7 2 1.5 2h3c0-.1.4-1.6.9-3.4 1.1-3.8.5-4.3-.9-.7-1.3 3.5-2.7 3.1-2.2-.5.2-1.6.7-2.8 1.1-2.5 1 .5 4.4-6.5 3.6-7.3-.3-.4-.8.4-1.2 1.7zM104 211.7c0 1.5-.2 1.6-1 .3-.8-1.2-1-.9-1 1.2 0 1.5-.6 3.3-1.4 4-.7.8-1.6 2.5-2 3.8l-.7 2.5 2.2-2.5c1.2-1.4 2.5-2.4 3-2.3.5.2.6-.4.3-1.2-.3-.7.4-2.2 1.5-3.2 2.4-2 2.8-4.3.6-4.3-.8 0-1.5.8-1.5 1.7z"/><path d="M152.6 213.7c-.4.9-.2 2.1.4 2.7.7.7 1 .7 1-.1 0-.6.3-1.8.6-2.7.3-.9.2-1.6-.4-1.6-.5 0-1.3.8-1.6 1.7zM121 214c0 1.1 4.8 2.5 5.6 1.7.3-.2-.9-.9-2.5-1.5-1.8-.7-3.1-.7-3.1-.2zM66 216.7c-1.9.3-3.9 1-4.3 1.6-.6.9-1 .9-1.4 0-.3-.9-1-1-2.2-.3-1 .5-2.1.6-2.5.3-.3-.3-.6-.1-.6.6 0 .8.7 1 2.1.6 1.4-.5 2.5-.2 3 .6.8 1.2 1 1.2 1.8.1.4-.8 2.3-1.5 4.2-1.6 5.8-.5 6-.6 5.4-1.6-.3-.6-.9-.9-1.3-.8-.4 0-2.3.3-4.2.5zM94 217.4c-.6.9-1 2.1-.8 2.8.3.8.9.4 1.7-1 1.5-2.8.9-3.9-.9-1.8zM192.6 216.9c-.4.5-.2 1.9.2 3.2.5 1.4 1.1 1.8 1.6 1.1.3-.6.2-1.3-.3-1.7-.6-.3-.8-1.2-.4-2 .6-1.6-.2-2.1-1.1-.6zM52 219.6c0 .8-.4 1.3-1 .9-1.4-.9-6 .6-5.7 1.9.1.6-.4 1-1 .8-.7-.1-1.3.6-1.3 1.7 0 1-.7 2.4-1.5 3.1-2.1 1.8-1.9 3 .7 3 1.7 0 1.9-.3 1-1.2-.9-.9-.4-1.9 2.4-4.5 2-1.8 4.3-3.3 5-3.3.7 0 1.8-.9 2.4-2 .7-1.4.7-2 0-2-.5 0-1 .7-1 1.6zM71.7 219.7c-.4.3-.7 1.6-.6 2.7 0 1.2.3 1.5.6.8.6-1.5 2.3-1.6 2.3-.1 0 1.2-1.8 3.1-4.4 4.6-1.6.9-1.7 1.1-.2 1.6 1 .4 1.5.3 1.2-.2-.3-.5.5-1.2 1.8-1.5 2.5-.6 4.1-4.2 3-7-.6-1.6-2.6-2.1-3.7-.9zM198.7 222.3c-.3.9-.2 1.9.3 2.2 1.3.8 1.3 2.5-.1 2.5-.5 0-.7-.5-.4-1 .3-.6-.1-1-.9-1-.9 0-1.6.7-1.6 1.5s-.4 1.5-1 1.5c-.5 0-1-.7-1-1.6 0-.8-.4-1.2-1-.9-.5.3-1 1.5-1 2.6 0 1-.4 1.9-1 1.9-.5 0-1 .9-1 2s.7 2 1.6 2c1.1 0 1.4-.6.9-2-.4-1.1-.2-2 .4-2 .6 0 1.1.6 1.1 1.2 0 .7.7.3 1.5-.9.9-1.3 2.2-2 3-1.7 2 .8 2.9-1.9 1.8-5.3-.8-2.2-1.1-2.4-1.6-1zM55.5 224c-1 1.1-1.3 2-.7 2 .6 0 1.4-.5 1.7-1 .4-.6 1.1-.8 1.6-.5.5.3.6-.1.3-.9-.8-2-.7-2-2.9.4zM76.9 224.2c-.7 1.2-1.2 3.8-1.3 5.7-.1 2.7-.6 3.7-2.1 3.9-3.6.7-3.5 1.7.3 1.7 3.2 0 3.9-.5 5.3-3.5.9-1.9 1.4-4.1 1.1-4.9-.4-1-.8-.7-1.5 1-1.3 3.4-2.1.6-.8-3.1 1.2-3.5.7-3.9-1-.8zM93.4 223.7c-1.1 2-.7 5.6.6 4.8.5-.3.7-1.2.3-2-.3-.9 0-2.2.7-3 .7-.8.8-1.5.4-1.5-.5 0-1.4.8-2 1.7zM99.6 224.7c-.4.9-.2 2.1.3 2.6s.7 1.7.4 2.6c-.4.9-.2 1.2.3.8 1-1 1.4-7.7.3-7.7-.4 0-1 .8-1.3 1.7zM34.7 227.5c2 4.2 2.6 4.3 4.7 1 .9-1.4 1.2-2.5.6-2.5s-1.3.7-1.6 1.5c-.5 1.2-1 1.3-2 .4-.8-.6-1.4-1.8-1.4-2.5 0-.8-.4-1.4-1-1.4-.5 0-.2 1.6.7 3.5zM96.5 225.2c-.2.7-.9 3.3-1.5 5.8-1.4 5.2-2.8 7.3-4.4 6.3-.6-.4-.5.1.3 1 .7.9 1.9 1.7 2.5 1.6.7 0 .6-.2-.1-.6-.9-.3-.3-1.4 1.6-3.4 2.5-2.4 2.9-3.6 2.8-7.4-.2-4.7-.5-5.4-1.2-3.3zM216.6 228c-.4 1.9-1 4.4-1.2 5.5-.5 1.9-.4 1.9.9.2.8-1 1.3-2.8 1.1-4-.5-2.2-.4-2.2.5-.1 1.1 2.5 4.1 4 4.1 2 0-.8-.7-1.6-1.5-2-.9-.3-1.9-1.6-2.4-2.8-.8-2.1-.9-2-1.5 1.2zM104.4 227.5c-1.2.9-1.4 1.4-.6 1.5.9 0 .7.9-.8 3-1.2 1.6-1.8 3.4-1.5 4 .3.5.1 1-.5 1-.8 0-1-1-.6-2.8.5-2.4.4-2.5-.5-.6-.7 1.3-.8 2.8-.3 3.6.8 1.2 1.3 1.2 3.4.1 1.4-.7 2-1.3 1.3-1.3-.8 0-.8-.7.2-2.8 1.5-3.2 2.8-7.2 2.3-7.2-.2 0-1.3.7-2.4 1.5zM206.7 228.8c.1.8.3 2.1.3 3 0 1.5.2 1.5 1 .2 1.2-1.9 1.3-4.3.1-3.6-.5.4-1.1.3-1.4-.1-.2-.5-.2-.2 0 .5zM211.5 230.2l-1.6 3.3 2-2.5c2-2.4 2.6-4 1.6-4-.2 0-1.2 1.5-2 3.2zM28.4 228.9c.7 1-1.8 3.3-2.7 2.5-.3-.3-.3.3 0 1.5.6 2.4 2.5 2.7 4.2.7.9-1.1 1-2 .1-3.5-.6-1.2-1.3-2.1-1.6-2.1-.3 0-.3.4 0 .9zM33 231.4c0 1 .8 1.6 2.2 1.6 1.2 0 1.9-.1 1.7-.3-.2-.1-1.2-.9-2.1-1.6-1.5-1.2-1.8-1.1-1.8.3zM203.7 231.8c-2.2 2.4-2.2 3.6 0 2.4.9-.6 1.8-1.7 1.9-2.6.3-2 .1-2-1.9.2zM52 232.5c-.6.8-1 1.9-.8 2.6.2.6.9 0 1.6-1.5 1.3-2.9 1-3.3-.8-1.1zM198.7 232.9c-.3 1.2-.1 2.1.3 2.1 1.4 0 1.9-1.5 1.1-2.9-.6-.9-1-.7-1.4.8zM212.9 232.8c-.8 1-1.3 2.4-1.1 3.2.3.9-.1 1.1-1.1.7-2.9-1.1-5.1 1.8-5.3 6.9-.1 2.7.3 5.6.9 6.5 1.5 2.4-.7 16.1-3.5 21.9-1.2 2.5-4 6.4-6.2 8.8-3.8 4.1-4.4 7.2-.8 3.9 1-1 2.4-1.7 3-1.7.6 0 1-.8.9-1.8 0-.9 1.1-3.5 2.6-5.7 1.4-2.2 3.3-6.7 4.1-10 1.6-6.4 2.6-23.6 1.4-22.8-1.1.6-1-.2.4-3.2.8-1.7 1.4-2.2 1.9-1.3.6.9 1.1.9 2.3-.1.9-.7 1.3-1.7 1-2.2-.3-.5 0-1.8.6-2.9 1.3-2.5.9-2.6-1.1-.2zM123.5 232.9c-.6 1.1.9 2.3 1.9 1.4.9-.9.7-2.3-.3-2.3-.6 0-1.2.4-1.6.9zM38.6 234.6c-.3.8 0 1.6.6 2 .7.4.8.3.4-.4s-.1-1.2.8-1.2 1.6-.4 1.6-.8c0-1.4-2.9-1-3.4.4zM30.5 234.9c-.6 1.1.9 2.3 1.9 1.4.9-.9.7-2.3-.3-2.3-.6 0-1.2.4-1.6.9zM144.9 235.6c-1 1.3-1 1.7.2 2.5 2.3 1.4 2.9 1.1 2.7-1.6-.3-2.9-1-3.1-2.9-.9zM149.5 236.9c-.3 1-.1 2.9.4 4.2l.9 2.4 1.1-2.8c1.5-3.9 1.4-4.4-.5-2.1-1.5 1.8-1.5 1.8-.9-.9.6-3 0-3.7-1-.8zM190 236.5c-.7.8-.7 1.5-.1 1.9.5.4 1.1-.2 1.3-1.1.3-1 .8.1 1.2 2.4.4 2.4 1.2 4.3 1.7 4.3s.9.4.9 1c0 .5-.9 1-2.1 1-1.1 0-1.7.4-1.4 1 .7 1.2-1.9 5.3-2.8 4.4-.3-.3-.3-1.2 0-2s0-1.4-.6-1.4c-1.6 0-1.3 3.6.4 5 .8.7 1.5.9 1.5.4s.5-.2 1 .6c.8 1.2 1 .9 1-1.3 0-1.6.4-2.6 1-2.2.6.3 1-.3 1-1.4 0-1.2.5-2.1 1.1-2.1.7 0 .9-.8.4-2.3-.4-1.2-.6-3.3-.6-4.7.1-3.2-3.2-5.6-4.9-3.5z"/><path d="M197.6 238.2c-2.4 3.1-2.6 4.8-.5 4.8.5 0 .9-1.1.9-2.5s.5-2.5 1.1-2.5c.6 0 .9.7.5 1.5-.3.8-.1 1.5.4 1.5.6 0 1-.7 1-1.5s.4-1.5 1-1.5c.5 0 .7-.7.4-1.5-.9-2.2-2-1.8-4.8 1.7zM158 238.1c.9 1.5.8 2.4-.1 3.5-.8 1-.8 1.4 0 1.4.6 0 1.1-.4 1.1-1 0-.5.7-.7 1.5-.4.8.4 1.5.2 1.5-.4 0-.5-.7-1.3-1.6-1.6-.8-.3-1.3-1-1-1.5.3-.5-.1-1.2-.9-1.5-1.3-.5-1.4-.2-.5 1.5zM26.4 239.2c-.4 1.3-1.2 2.6-1.8 3.1-.6.4 0 .6 1.4.5 1.9-.2 2.4.1 2.2 1.4-.2 1 .1 1.8.5 1.8.5 0 1-1.3 1.1-3 .2-2.4-.1-2.8-1.4-2.3-1.3.5-1.5.2-.9-1.5.3-1.2.4-2.2.1-2.2-.2 0-.8 1-1.2 2.2zM58.9 238.8c-.9 1-1.4 2.3-1.2 2.9.3.7-.1 2.1-.7 3.3-.7 1.4-.8 2.6-.1 3.8 1 1.6 1 1.5 1.1-.3 0-1.1.7-4 1.6-6.4 1.7-4.9 1.5-5.8-.7-3.3zM83.1 239.1c0 1.5.6 3.2 1.4 3.9 1.1.9 1.2 1.6.5 2.5-1.3 1.5-1 3.4.7 5.3.9.9 1 1.9.3 3.2-1.4 2.6-1.3 3 .7 2.3 1.1-.4 1.4-.3.9.6-.4.6-.2 1.9.5 2.7.6.8.9 1.7.5 2.1-.3.4-1.3-.2-2.2-1.3-.8-1-1.3-1.3-.9-.7.3.7 0 1.3-.7 1.4-.7 0-.1.5 1.4 1 2.5 1 4.5 5 3.3 6.9-.3.5.3 1.4 1.4 2 2.2 1.2 1.8 4.2-.5 3.3-.8-.3-1.4.1-1.4 1.1 0 .9.6 1.3 1.4 1 .8-.3 1.6.3 1.9 1.5.3 1.2 1 2.1 1.6 2.1 1.4 0 1.4-1.7.1-2.5-.5-.3-1-1.6-.9-2.8 0-2.2 0-2.2 1.7.3.9 1.3 4.1 4.9 7 7.8 2.8 2.9 5.2 5.8 5.2 6.5 0 1.4 3.5 3.8 4.4 3 .3-.3-.2-1.2-1.2-1.9-.9-.7-1.7-1.6-1.7-2.1-.1-.4-3.1-3.9-6.9-7.7-7.6-7.6-8.5-9.4-11.7-22.2-1.2-4.9-2.7-9.2-3.3-9.6-.6-.4-.7-.8-.1-.8s.8-2.2.6-5.2c-.2-2.9-.6-4.7-.8-4.1-.7 1.9-2.1 1.6-2.6-.5-.3-1.1-.5-.8-.6.9zM105.2 240.5c-.7 1.5-1.7 2.3-2.3 2-.6-.4-1.3.2-1.6 1.3-.3 1.1-1.1 1.8-1.7 1.6-.9-.3-1.3.6-1.2 3.1.1 1.9.4 3.5.8 3.5 1.5 0 4-5 3.5-6.9-.3-1.4-.1-1.8.9-1.4.8.3 1.7-.2 2-1.1.3-.9 1.3-1.6 2.1-1.6s1.3-.5 1.1-1.2c-.8-2.2-2.4-1.9-3.6.7zM141 240.5c0 3 1.6 3.3 2.3.6.3-1.2-.1-2.2-.9-2.5-1-.4-1.4.2-1.4 1.9zM186.5 239.1c-.4.5-1.3.8-2.1.5-1.1-.4-1.2-.2-.1 1.5 1 1.7 1.3 1.7 2.3.4.6-.8 1.4-1.2 1.7-.8.4.3.7.1.7-.5 0-1.6-1.8-2.4-2.5-1.1zM95.4 240.5c-1 .8-1.4 1.5-.8 1.5.5 0 1.9-.7 3-1.5 1-.8 1.4-1.5.8-1.5-.5 0-1.9.7-3 1.5zM99.9 240.9c-1.3 1-2.7 1.9-3.1 2-.9.1-1.1.7-.6 2.1.2.6 1.8-.5 3.6-2.5 3.7-3.9 3.7-4.5.1-1.6zM32.4 240.9c.3.5 0 2.4-.8 4.2-1.7 4.5-1.6 15.1.3 15.7.8.3 1.1 0 .7-.7-.5-.7-.1-.9.8-.5.9.3 1.6.1 1.6-.5s-.9-1.1-2.1-1.1c-1.5 0-1.9-.4-1.5-1.6.3-.9.6-2.2.6-3 0-1.9 3.3-1.4 4.1.5.5 1.2.6 1.2 1.1-.1.4-.8-.2-2.2-1.3-3.1-1-.9-1.9-1.2-1.9-.7 0 .6-.4 1-1 1-1.4 0-1.2-5.6.3-7.2 1.8-2 1.9-3.8.1-3.8-.8 0-1.3.4-1 .9zM79.3 242.7c.9.2 1.7.9 1.7 1.4 0 .5.5.9 1.1.9.8 0 .8-.5-.1-1.5-.7-.8-2-1.4-2.9-1.4-1.3.1-1.3.2.2.6zM142.8 243.7c-2.5 3.1-4.9 7.3-4 7.3 1.4 0 3.2-2.3 3.2-4.1 0-1.5.4-1.5 2.4-.6 1.3.7 2.1 1.6 1.8 2.2-.4.5-.7 1.4-.7 2-.2 3-1.8 7.4-2.6 7-1.4-.9-2.3 4.5-.9 5.8 1 1 1.2.8.6-.7-.4-1.1-.3-2.2.2-2.5.5-.3 1.7-2 2.6-3.6 1.4-2.5 1.6-2.6 1.2-.7-.4 2.3-.4 2.3 1.4.7 1.7-1.5 1.8-5.1.1-4-.4.2-.5-.9-.3-2.5.3-2-.2-3.4-1.6-4.6-1.2-1-1.9-2.1-1.6-2.6.9-1.5-.3-.8-1.8.9zM180 244.9c0 1.7-.4 3.3-1 3.6-.6.4-.4 1.7.6 3.6.8 1.7 1.8 2.9 2.1 2.6.3-.3.1-1.3-.4-2.2-.6-.9-.8-3.7-.5-6.1.2-2.4.1-4.4-.2-4.4-.3 0-.6 1.3-.6 2.9zM48.4 244.2c-.5.7-1 2.4-1.1 3.8-.2 2.1 0 2 1.3-.9 1.5-3.3 1.3-5.4-.2-2.9z"/><path d="M35 244.9c0 .6.5 1.1 1.1 1.1.5 0 .7.4.4 1-.3.5-.1 1 .4 1 1.6 0 1.3-1.6-.4-3-1-.9-1.5-.9-1.5-.1zM105.5 245c-.3.5-.4 1.9 0 2.9.3 1.1.1 2.2-.5 2.6-.5.3-.9 2.4-.8 4.6.1 3.6.3 3.9 1.7 2.4 1.3-1.3 1.4-1.7.2-2.4-.7-.5-.9-1.1-.4-1.4.5-.3.9-1.8.8-3.4 0-1.5.6-3 1.3-3.3 1.1-.5 1.1-.8-.1-1.8-1-.9-1.7-1-2.2-.2zM183.7 245.7c-1 1-.8 3.3.2 3.3.6 0 .9-.9.8-2-.1-2.3-.1-2.2-1-1.3zM230.4 246.6c.3.8.6 1.8.6 2 0 .2.5.4 1 .4 1.6 0 1.1-2.7-.6-3.4-1.2-.5-1.5-.2-1 1zM111 250.1c0 .6-.4.8-.8.5-.4-.2-.8.4-.8 1.5 0 2.4.7 2.4 2.8 0 1.4-1.6 1.4-2 .2-2.5-.8-.3-1.4-.1-1.4.5zM210.4 253c.3 1.9 1 5.4 1.4 7.7.5 2.3.8 5.7.7 7.5-.2 1.8.2 3.6.8 4 .9.6.9 1 .1 1.5-.6.5-1 3-.9 6.1.2 2.8-.1 5.5-.6 5.8-1.3.8-1.1 2.1.5 2.7.8.3 2-.1 2.7-.9 1-1.2.9-1.3-.5-.8-1.2.5-1.5.2-1-1 .3-.9 1-1.6 1.5-1.6s.4-.8-.2-1.9c-1.4-2.2-.6-5.1 1.5-5.1 1.6 0 3 4.3 1.6 4.8-1 .4 1.3 3.2 2.4 3.2.6 0 .2-2.7-1.1-7.3-.2-1-1.4-1.7-2.9-1.7-1.3 0-2.4-.5-2.4-1 0-.6.5-1 1.1-1 .6 0 .8-.7.5-1.5-1.8-4.4-1.8-5.1-.2-3.1 1.9 2.3 2.7 1.8 2-1.1-.4-1.3-1.1-2-2-1.6-1.2.4-1.1 0 .1-2.3.9-1.8 1.1-3 .5-3.2-.6-.2-.8-.8-.5-1.3.4-.5-.1-.6-1-.3-1.1.5-1.6.2-1.5-.7.5-3.1-.1-5.6-1.6-7.5-1.5-1.8-1.5-1.7-1 1.6zM55.6 252.6c-.9 2.4-.7 5.4.4 5.4.6 0 1-1.6 1-3.5 0-3.8-.4-4.4-1.4-1.9zM171.3 252.5c-1 1.1-1 2-.1 4 1.2 2.8 2.8 3.3 2.8 1 0-.8-.4-1.5-1-1.5-1.7 0-1.1-2.8.8-3.9 1.3-.8 1.4-1 .2-1-.8 0-2.1.6-2.7 1.4zM183 252.9c0 1-.6 3.4-1.4 5.2-.7 1.9-1.7 4.5-2.1 5.9-.6 2.2-.4 2 1.9-.9 1.4-1.9 2.6-3.1 2.6-2.5 0 .5.5.2 1-.7.6-1 .5-3-.1-5.2-1.1-4-1.9-4.8-1.9-1.8zM204.3 256c0 2.5.2 3.5.4 2.2.2-1.2.2-3.2 0-4.5-.2-1.2-.4-.2-.4 2.3zM16.6 254.4c.3.9 1.3 1.6 2.1 1.6s1.1-.5.8-1c-1.4-2.2 2.1-.8 4.2 1.7 1.8 2 2 2.9 1.1 3.5-1 .6-1 .8.1.8.8 0 1.1.6.7 1.6-.3.8-.2 1.2.4.9.6-.3 1-.3 1.1.2.2 2.8 1 4.6 2.8 7.2 1.4 1.9 2 3.9 1.7 5.5-.3 1.5-.2 2.6 0 2.6 1.2 0 3.3-2.8 2.6-3.5-.7-.7-.8-1.2-1.1-4 0-.8-.7-1.5-1.3-1.5-.7 0-1.4-1-1.5-2.3 0-1.2-.9-4-1.9-6.2-1-2.2-1.9-4.6-2-5.3-.4-2.1-1-2.4-5.9-2.9-3.9-.5-4.5-.3-3.9 1.1zM110.8 254.3c-1.6.6-2.8 1.6-2.8 2.3 0 .7-.3 2-.6 2.8-.5 1.2-.2 1.5 1 1 .9-.3 1.6-1.2 1.6-1.9s1.2-2.3 2.8-3.4c2.9-2.2 2.3-2.5-2-.8zM176.7 254.6c-.4.4-.7 1.7-.7 2.9 0 1.1-.5 2.6-1 3.1-.6.6-1.2 3.4-1.4 6.4l-.4 5.4 1.9-2.5c1.1-1.3 2.6-4.8 3.5-7.8 1.4-4.6 1.4-5.5.2-6.7-.8-.8-1.7-1.1-2.1-.8zm2.2 2.6c0 .7-.7 2.9-1.5 4.8l-1.4 3.5.5-3.4c.3-1.8.5-4 .5-4.7 0-.8.5-1.4 1-1.4.6 0 1 .6.9 1.2zM113.2 257.5c-2.3 2.6-2.9 5.5-1.2 5.5.6 0 1-.9 1-2s.9-2.9 2-4 1.6-2 1.2-2c-.5 0-1.8 1.1-3 2.5zM133.6 257.6c-1 2.5-.1 2.7 1.9.4 1.5-1.7 1.6-2 .3-2-.9 0-1.9.7-2.2 1.6zM116.6 259.3c.1 1.2.3 2.8.3 3.4.2 2.4 2 1.3 3.6-2 1.6-3.2 1.6-3.2-.3-1-2 2.3-3.5 2.1-2.6-.2.3-.7.1-1.5-.4-1.9-.5-.3-.7.5-.6 1.7zM153.7 257.7c-.2.5-.3 1.5-.2 2.3.1.8.3 2.6.4 4 .1 1.9.3 2.2 1 1 .6-.8.7-1.9.3-2.5-.3-.5-.5-2-.3-3.3.2-2.1-.4-3-1.2-1.5z"/><path d="M16.5 259.2c-3.6 1-7.1 3.5-6.2 4.4.4.4 1.4.1 2.3-.6 1.3-1.2 1.7-1.1 2.5.1.7 1.1.9 1.1.9-.4s2.3-2.3 5.3-1.8c.4 0 .7-.3.7-.8 0-1.5-2.3-1.8-5.5-.9zM136.7 259.3c-.3.9.1 1.8.9 2.1 1.6.6 1.8-.2.5-2.2-.7-1.1-.9-1.1-1.4.1zM55.9 259.7c-.1.7-.2 1.9-.3 2.5-.1.7 0 1.7.3 2.3 1.2 2.2 4 11.1 4.1 12.7 0 .9.5 2 1.2 2.4.8.5.9-.1.5-2.2-1.4-5.8-5.6-18.9-5.8-17.7zM123.7 260.3c-.4 1-.7 2.6-.7 3.5.1 1.5.2 1.5 1.1-.1.6-1 .9-2.5.7-3.5-.3-1.6-.4-1.5-1.1.1zM167.1 262.6c-.6 2.1-1.1 4.6-1.1 5.4 0 .8-1.2 2.6-2.5 3.9-2.8 2.6-3.3 1.7-.9-1.7.9-1.3 1.3-2.9 1-3.7-.3-.8.1-2.1.9-2.9.8-.8 1.5-1.9 1.5-2.5 0-1.8-2-1.2-2.6.6-1.1 3.4-4.3 10.8-4.4 10 0-.5-.6-.2-1.4.6-.8.8-1.2 2.4-.9 3.5.5 2-2.2 6-3.3 4.9-.3-.2.2-1.2 1.1-2 .8-.9 1.5-2.1 1.5-2.8 0-.6-.9 0-2 1.4-2.6 3.3-2.7 7.2-.2 6.2.9-.4 2.5-1 3.5-1.2.9-.3 1.7-1 1.7-1.7 0-.6.5-.4 1 .4.9 1.3 1.1 1.3 2 0 .7-1.1.5-1.6-.8-1.9-.9-.2-2-.8-2.4-1.5-1.1-1.6-1-4.6.2-4.6.6 0 1 1 1 2.3 0 3.5 2.9 2.9 3.9-.7.7-2.5.9-2.7 1-.9.1 2.9 1.7 2.9 3.2.2.8-1.5 1.3-1.8 1.9-1 .5.9.9.8 1.3-.4.5-1.1.3-1.4-.5-.9-.8.5-.9.2-.3-1.2.4-1 .9-3.3 1-4.9.1-1.7 0-2-.2-.8-.2 1.3-.9 2.3-1.4 2.3-.5 0-.9.8-.9 1.8s-.7 2.7-1.5 3.8c-1.3 1.7-1.4 1.6-.8-2.1.3-2.2 1.2-5.2 1.9-6.6.7-1.5.9-3.1.4-3.9-.6-.9-1.1-.2-1.9 2.6zM125.6 263.7c-.9 1.8-1.4 3.3-1 3.3.4 0 .1.7-.6 1.5-1 1.2-.9 1.5.5 1.5 1.1 0 1.5.5 1.2 1.4-.4 1-.1 1.3.8.9.8-.3 1.2-1 .8-1.6-.3-.6-.1-.7.6-.3.9.6.9 1.1.1 2.1-.8.9-.6 1.4.6 1.9 2.3.9 3.4.7 3.4-.5 0-.5-.4-.7-1-.4-.6.3-.7-.1-.4-.9.4-.9-.1-1.8-1-2.2-.9-.3-1.3-1.1-.9-1.8.4-.6-.1-.5-1 .3-1.4 1.1-1.7 1.1-1.7-.1 0-.8.6-2 1.3-2.7 1-1.1 1-1.3 0-.7-.7.4-1.3.3-1.3-.3 0-.5.5-1.1 1.2-1.3.6-.2.9-1.1.6-1.9-.3-.9-1-.3-2.2 1.8z"/><path d="M129.4 262.4c-.8 2-.1 4.7 1.1 4.9.5.1 1.1-.6 1.3-1.7.3-1.3 0-1.6-.9-1.1-.9.6-1.1.2-.7-1.3.7-2.5 0-3-.8-.8zM224.9 262.1c-.1.8-.1 1.8.1 2.4.1.5.2 2.2.2 3.8.1 1.5.6 2.6 1.2 2.4.6-.3.9-1.1.8-1.8-.2-.8-.6-2.7-.8-4.3-.4-3.2-1.3-4.7-1.5-2.5zM3 263.5c-.7.8-1.6 1.2-2.1.9-.5-.3-.9.1-.9.9 0 1.2.7 1.3 3.7.7 2-.5 4.1-.7 4.5-.4.4.3.8 0 .8-.6 0-.8-1.1-.9-3.2-.5-2.4.4-2.9.3-1.8-.4.8-.5 1.2-1.3.9-1.6-.4-.3-1.2.1-1.9 1zM135.2 263.2c-1.8 1.8-1.4 4.4 1.1 7 1.2 1.3 1.6 1.6.8.6s-1.1-2.1-.8-2.5c.4-.3.2-1.3-.5-2-.9-1.1-.9-1.6.2-2.3.8-.5 1.2-1.1.9-1.4-.3-.3-1.1 0-1.7.6zM111.5 264.6c-1.6 1.2-1.6 1.4-.3 1 .9-.2 1.9.2 2.2 1 .3.8.1 1.4-.4 1.4-.6 0-1 .4-1 .9s.9.7 1.9.4c1.4-.4 1.9-1.2 1.7-3.1-.4-3.2-1.6-3.7-4.1-1.6zM145.8 264.3c.7.8.7 1.8.2 2.7-1.5 2.3-1.2 3.3.5 1.6 2-1.9 1.9-4.2-.1-5-1.3-.5-1.4-.3-.6.7zM33 264.7c.1 1.8 1.8 3.5 2.4 2.4.4-.6.2-1.1-.4-1.1-.6 0-.8-.5-.5-1 .3-.6.1-1-.4-1-.6 0-1.1.3-1.1.7zM37.3 268.5c-.1 2 .3 3.3.8 3 1.1-.7 1.2-6.5.2-6.5-.5 0-.9 1.6-1 3.5zM119.7 266.1c-.9.6-1.7 1.7-1.7 2.6 0 .9-1 2.7-2.2 4-1.2 1.3-1.7 2.3-1.1 2.3.6 0 1.4-.8 1.7-1.7.5-1.3.9-1.4 1.9-.4.9.9.9 1.4-.3 2.2-1.3.9-1.2 1 .3.5.9-.3 1.7-.1 1.7.4 0 2.1 2 .9 2.6-1.5.4-1.7.1-3.2-1-4.4-1.2-1.3-1.3-2-.4-2.9 1.6-1.6.7-2.3-1.5-1.1zM154.6 270.4c-1.3 3.6-2.4 5.5-3.2 5.2-.7-.3-1.5 0-1.7.7-.2.7-1-.1-1.9-1.7-1.2-2.3-1.6-2.6-2.1-1.2-.4.9-.3 1.5.2 1.2.5-.3 1.2.1 1.5 1 .9 2.2.7 3.1-.2 1.6-.5-.7-1.6-1-2.5-.6-2.9 1.1-1.9 2.4 1.8 2.4 1.9 0 3.5-.5 3.5-1 0-.6.7-1 1.6-1 1.7 0 5.7-8.2 5.2-10.7-.2-.9-1.2 1-2.2 4.1zM141 267.9c.6 1.2.6 2.2.1 2.5-1 .7-.3 4.6.9 4.6s1.9-6.4.8-7.8c-1.6-1.9-3-1.4-1.8.7zM131.6 267.8c-.4.6 0 2.2.9 3.6 2.1 3.2 1.1 7.4-2.1 8.2-1.3.3-2.4 1-2.4 1.5 0 1.2.6 1.1 4.1-.7 1.9-1 2.9-2.1 2.5-3-.3-.8-.1-1.4.4-1.4 1.6 0 1.1-2.7-.7-4.6-1-1-1.7-1.9-1.5-2.1.2-.2.2-.9 0-1.5-.3-.9-.6-.9-1.2 0zM279.7 271.7c.6 1.6.8 1.6 2.3-.1.9-1.2.8-1.5-.8-1.3-1.2 0-1.8.6-1.5 1.4zM49 272.3c0 .8.7 1.7 1.5 2.1.8.3 1.5.3 1.5 0s-.7-1.2-1.5-2c-1.3-1.3-1.5-1.3-1.5-.1zM206.2 273.2c-.6.9-.4 1.9.9 3.2 1.1 1.1 1.9 1.4 1.9.8 0-.6-.5-1.4-1.1-1.7-.6-.4-.8-1.3-.5-2.1.7-1.7.2-1.8-1.2-.2zM137.5 275c-.8 1.4.9 4.3 2.8 4.6 1.1.1 1.4-.3.9-1.4-.9-2.6-3-4.4-3.7-3.2zM49.6 277c.4 1.3 1.3 3 2 3.8 2.3 2.2 1.7-.9-.7-3.8l-2-2.5.7 2.5zM81 275.4c0 .2 1.1.6 2.5.8 1.4.3 2.5.1 2.5-.3 0-.5-1.1-.9-2.5-.9s-2.5.2-2.5.4zM202.2 277.7c-1.5 2.8-1.5 3.6.1 3 .6-.2 1.7.4 2.2 1.3.9 1.6 1.2 1.6 2.9-.8l2-2.7-2.2 1.9c-2.1 1.8-2.1 1.8-3-1.5-.8-3.3-.9-3.3-2-1.2zM35.6 278.6c-1 2.6-.7 3.4 1.2 3.4 1.2 0 1.4-.2.4-.8-.7-.5-1-1.6-.6-2.5.3-.9.4-1.7.1-1.7-.3 0-.8.7-1.1 1.6zM28 278.7c.8.3.7.9-.1 1.9-1 1.2-.9 1.3.5.8 1.8-.7 1.7-2.6-.2-3-.7-.1-.8 0-.2.3zM134.7 280.1c-.9 1-1.3 1.9-.8 1.9s1.6.3 2.5.6c1.1.4 1.6 0 1.6-1.4 0-3-1.4-3.4-3.3-1.1zM147.8 280.7c-1.5.4-1.5.8-.5 2.4.6 1 1.6 1.9 2.1 1.9.4 0 .3-.6-.3-1.4-1-1.1-.8-1.5.6-1.8 1-.2 1.4-.6.8-.9-.5-.3-1.8-.4-2.7-.2zM62 281.5c0 1.2 3.7 8.1 4.8 9 .7.6 1.4 1.7 1.6 2.5.5 2.7 1.8 5 2.7 5 1.4 0 1.1-2-.7-3.7-.8-.9-1.3-2.1-1-2.9.3-.7.2-1.4-.2-1.6-.4-.2-2-1.8-3.5-3.7-2.2-2.6-2.5-3.6-1.5-4.2 1-.7.9-.9-.4-.9-1 0-1.8.2-1.8.5zM90.6 282.7c-.3.6.2 1.4 1 1.7.8.3 1.4.1 1.4-.4 0-.6.7-1 1.5-1 1 0 1.5 1 1.5 3.1 0 2.7.2 3 1.5 1.9.9-.8 1.5-.9 1.5-.2 0 .6-.4 1.4-1 1.7-2.1 1.3-1 4.3 2.1 5.4 2.2.8 2.9 1.5 2.5 2.6-.4 1-.2 1.4.5.9.6-.4 1.5-.1 1.9.6.4.7 1.3.9 1.9.6 1.8-1.1-.6-4.7-2.6-3.9-1.3.5-1.5.2-1-1.1.5-1.1-.6-3.7-3.2-7.4-3-4.5-4.4-5.7-6.5-5.7-1.4 0-2.8.5-3 1.2zm10.4 8.2c0 2.4-1.6 3.6-2.6 1.9-.4-.6-.2-1.4.4-1.6.7-.2 1-.8.6-1.3-.3-.5 0-.9.5-.9.6 0 1.1.9 1.1 1.9zM124.3 281.8c-.9.6-.7 1.1.7 2 1.7 1.1 2 1 2-.8 0-2.1-.7-2.5-2.7-1.2zM140 281.9c0 .6.9 1.1 2 1.1 1.4 0 1.8.5 1.3 1.7-.4 1.1-.3 1.4.5.9 1.4-.8 1.6-3.6.3-3.6-.5 0-1.6-.3-2.5-.6-.9-.3-1.6-.1-1.6.5zM15.7 283.5c.4 1.2.9 1.3 1.8.5 1.7-1.4 2.9.4 2 2.8-.5 1.4-.4 1.5.7.4 1.7-1.6 0-4.4-3-4.8-1.6-.3-2 0-1.5 1.1zM37.7 285.9c.6 2.3 4.3 6 4.3 4.3 0-.7-.4-1.2-.9-1.2s-1.2-1.1-1.5-2.5c-.4-1.4-1-2.5-1.5-2.5s-.7.9-.4 1.9zM200.3 286.6c-1.5 1.5-1.7 4.4-.4 4.4.7 0 2.3-5.1 1.8-5.6-.1-.1-.8.4-1.4 1.2zM187.4 288.8c-2.5 1.6-4 3.4-3.9 4.4.2 1.1-.2 1.5-1.1 1.1-.8-.3-1.1-.9-.8-1.4.6-1.1-2.6-.4-9.2 1.7-2.3.8-6.3 1.7-8.8 2-2.5.4-4.6 1-4.6 1.4 0 1.4 1.4 1.9 2.6 1 .6-.6 2.8-.9 4.8-.7 2.1.3 3.3 0 2.9-.5-.3-.6.4-.7 1.8-.3 1.9.5 2.1.4.9-.5-1.2-.9-.8-1.1 1.8-.7 2.2.2 3.6-.1 3.9-1 .9-2.2 2.3-1.5 2.3 1.3v2.5l3.3-3c3.3-3.2 5.1-3.8 6.2-2.1.7 1.1 2.5.4 2.5-1 0-.5-.7-.7-1.5-.4-.8.4-1.5.3-1.5 0 0-.4 1.2-1.1 2.8-1.7 2.5-1 2.6-1.2 1-2.3-1-.7-1.5-1.6-1.1-1.9 1.4-1.4-.4-.6-4.3 2.1zM219.4 287.6c.3.9.9 2.7 1.2 4 .3 1.3 1 2.4 1.5 2.4s.7-.6.5-1.2c-.3-.7-.7-2.5-1-4.1-.4-1.5-1.1-2.7-1.7-2.7-.6 0-.8.7-.5 1.6zM29 291.5c0 .8-.5 1.5-1.2 1.5-.6 0-.8.3-.4.7.4.5 1.4-.1 2.2-1.1.8-1.1 1.4-1.4 1.4-.7s.5.9 1.1.5c.8-.4.7-.9-.2-1.5-2-1.3-2.9-1.1-2.9.6zM54.2 290.9c-1 .6-.9 1 .7 1.4 1.4.3 2.1 0 2.1-.9 0-1.6-.9-1.8-2.8-.5zM113.3 292.2c-.2 1.9 0 2 .8.8.8-1.1 1.2-1.2 1.6-.3.2.7 1.7 1.3 3.3 1.3 1.5 0 3.4.8 4.1 1.7 1.2 1.5 1.2 1.6-.3 1-1-.3-2-.2-2.3.3-.4.6.3 1 1.4 1 1.1 0 2.3-.5 2.6-1 .3-.6 1.4-1 2.3-1 1.5 0 1.5.2.2 1-1 .7 0 .8 3.3.4 3.7-.5 4.7-.4 4.7.8 0 .7.9 1.4 2 1.5 1.1.1 1.8-.2 1.5-.8-.4-.5.4-.9 1.7-1 1.3-.1-.8-.8-4.7-1.6-3.8-.8-7.7-1.7-8.5-2.1-.8-.3-2-.4-2.6-.3-.7.1-3.3-.8-5.9-1.9-2.5-1.1-4.8-2-4.9-2-.1 0-.3 1-.3 2.2zM149.8 291.8c-.4 1.5-.1 1.8 1.4 1.4 1.9-.5 2-2.3.1-2.9-.6-.2-1.3.5-1.5 1.5zM209.8 292.7c0 1.6-.1 3.3-.1 4 0 .6-.5.9-1.2.7-.7-.3-1.5.1-1.8.9-.4 1.1.1 1.4 1.9 1.3 2.3-.1 3.2-2.3 2.5-6-.1-.5.4-.5 1.1.1 1 .9 1.3.6 1.3-1.3 0-3.6-3.5-3.3-3.7.3zM50.6 293.5c2.4 3.9 2.4 4 2.4 2.8 0-.6-.9-2.1-2.1-3.4l-2-2.4 1.7 3zM79 292.2c0 1.1 2.2 1 3.9-.1 1-.7.7-.9-1.2-.8-1.5.1-2.7.5-2.7.9zM96.7 297c.8 1.7 1.9 2.8 2.3 2.5.5-.3 0-1.7-1.2-3-2.8-3.2-3-3.1-1.1.5zM143 298c0 .5 1.5 1 3.3 1 2.4 0 2.8-.3 1.7-1-2-1.3-5-1.3-5 0zM150 298c0 .6 1.8 1 4 1s4-.4 4-.8c0-.5-1.8-.9-4-1-2.2-.1-4 .3-4 .8z"/></svg>